<svg data-v-423bf9ae="" xmlns="http://www.w3.org/2000/svg" viewBox="0 0 568 111" class="iconLeftSlogan"><!----><!----><!----><g data-v-423bf9ae="" id="298b6915-a033-4d46-ac0f-ed7693583658" fill="white" transform="matrix(4.597701082226675,0,0,4.597701082226675,126.5616136236035,-11.632183844910784)"><path d="M8.12 12.67L0.94 12.67L0.94 3.04L2.95 3.04L2.95 11.12L8.12 11.12L8.12 12.67ZM11.45 3.94L9.53 3.94L9.53 2.53L11.45 2.53L11.45 3.94ZM11.45 12.67L9.53 12.67L9.53 5.28L11.45 5.28L11.45 12.67ZM20.17 5.28L17.44 12.67L15.14 12.67L12.50 5.28L14.53 5.28L15.82 9.41L15.82 9.41Q15.92 9.75 16.30 11.12L16.30 11.12L16.30 11.12Q16.37 10.84 16.58 10.14L16.58 10.14L16.58 10.14Q16.80 9.43 18.16 5.28L18.16 5.28L20.17 5.28ZM24.23 12.81L24.23 12.81L24.23 12.81Q22.57 12.81 21.67 11.82L21.67 11.82L21.67 11.82Q20.77 10.83 20.77 8.94L20.77 8.94L20.77 8.94Q20.77 7.11 21.68 6.13L21.68 6.13L21.68 6.13Q22.59 5.14 24.26 5.14L24.26 5.14L24.26 5.14Q25.85 5.14 26.69 6.20L26.69 6.20L26.69 6.20Q27.54 7.25 27.54 9.29L27.54 9.29L27.54 9.34L22.79 9.34L22.79 9.34Q22.79 10.42 23.19 10.98L23.19 10.98L23.19 10.98Q23.59 11.53 24.33 11.53L24.33 11.53L24.33 11.53Q25.35 11.53 25.61 10.64L25.61 10.64L27.43 10.80L27.43 10.80Q26.64 12.81 24.23 12.81ZM24.23 6.35L24.23 6.35L24.23 6.35Q23.56 6.35 23.19 6.82L23.19 6.82L23.19 6.82Q22.83 7.29 22.80 8.14L22.80 8.14L25.68 8.14L25.68 8.14Q25.62 7.25 25.25 6.80L25.25 6.80L25.25 6.80Q24.87 6.35 24.23 6.35ZM35.23 10.51L35.23 10.51L35.23 10.51Q35.23 11.59 34.35 12.20L34.35 12.20L34.35 12.20Q33.47 12.81 31.92 12.81L31.92 12.81L31.92 12.81Q30.39 12.81 29.58 12.33L29.58 12.33L29.58 12.33Q28.77 11.85 28.51 10.83L28.51 10.83L30.19 10.58L30.19 10.58Q30.34 11.10 30.69 11.32L30.69 11.32L30.69 11.32Q31.04 11.54 31.92 11.54L31.92 11.54L31.92 11.54Q32.72 11.54 33.09 11.33L33.09 11.33L33.09 11.33Q33.46 11.13 33.46 10.69L33.46 10.69L33.46 10.69Q33.46 10.34 33.16 10.13L33.16 10.13L33.16 10.13Q32.87 9.92 32.16 9.78L32.16 9.78L32.16 9.78Q30.53 9.45 29.96 9.18L29.96 9.18L29.96 9.18Q29.39 8.90 29.10 8.46L29.10 8.46L29.10 8.46Q28.80 8.02 28.80 7.38L28.80 7.38L28.80 7.38Q28.80 6.32 29.62 5.73L29.62 5.73L29.62 5.73Q30.43 5.13 31.93 5.13L31.93 5.13L31.93 5.13Q33.25 5.13 34.05 5.65L34.05 5.65L34.05 5.65Q34.86 6.16 35.05 7.13L35.05 7.13L33.35 7.31L33.35 7.31Q33.27 6.86 32.95 6.63L32.95 6.63L32.95 6.63Q32.63 6.41 31.93 6.41L31.93 6.41L31.93 6.41Q31.25 6.41 30.91 6.59L30.91 6.59L30.91 6.59Q30.56 6.76 30.56 7.17L30.56 7.17L30.56 7.17Q30.56 7.49 30.83 7.68L30.83 7.68L30.83 7.68Q31.09 7.87 31.71 7.99L31.71 7.99L31.71 7.99Q32.58 8.17 33.25 8.36L33.25 8.36L33.25 8.36Q33.93 8.54 34.33 8.80L34.33 8.80L34.33 8.80Q34.74 9.06 34.98 9.47L34.98 9.47L34.98 9.47Q35.23 9.88 35.23 10.51ZM39.86 12.81L39.86 12.81L39.86 12.81Q38.18 12.81 37.26 11.81L37.26 11.81L37.26 11.81Q36.35 10.81 36.35 9.02L36.35 9.02L36.35 9.02Q36.35 7.18 37.27 6.16L37.27 6.16L37.27 6.16Q38.19 5.14 39.89 5.14L39.89 5.14L39.89 5.14Q41.19 5.14 42.05 5.80L42.05 5.80L42.05 5.80Q42.90 6.45 43.12 7.61L43.12 7.61L41.19 7.70L41.19 7.70Q41.10 7.14 40.78 6.80L40.78 6.80L40.78 6.80Q40.45 6.46 39.85 6.46L39.85 6.46L39.85 6.46Q38.36 6.46 38.36 8.94L38.36 8.94L38.36 8.94Q38.36 11.50 39.87 11.50L39.87 11.50L39.87 11.50Q40.42 11.50 40.79 11.15L40.79 11.15L40.79 11.15Q41.16 10.81 41.25 10.12L41.25 10.12L43.18 10.21L43.18 10.21Q43.07 10.97 42.63 11.57L42.63 11.57L42.63 11.57Q42.19 12.16 41.47 12.49L41.47 12.49L41.47 12.49Q40.76 12.81 39.86 12.81ZM51.59 8.97L51.59 8.97L51.59 8.97Q51.59 10.77 50.59 11.79L50.59 11.79L50.59 11.79Q49.59 12.81 47.83 12.81L47.83 12.81L47.83 12.81Q46.10 12.81 45.12 11.79L45.12 11.79L45.12 11.79Q44.13 10.76 44.13 8.97L44.13 8.97L44.13 8.97Q44.13 7.18 45.12 6.16L45.12 6.16L45.12 6.16Q46.10 5.14 47.87 5.14L47.87 5.14L47.87 5.14Q49.68 5.14 50.64 6.13L50.64 6.13L50.64 6.13Q51.59 7.12 51.59 8.97ZM49.58 8.97L49.58 8.97L49.58 8.97Q49.58 7.65 49.15 7.05L49.15 7.05L49.15 7.05Q48.72 6.46 47.90 6.46L47.90 6.46L47.90 6.46Q46.15 6.46 46.15 8.97L46.15 8.97L46.15 8.97Q46.15 10.21 46.58 10.85L46.58 10.85L46.58 10.85Q47.00 11.50 47.81 11.50L47.81 11.50L47.81 11.50Q49.58 11.50 49.58 8.97ZM55.04 12.67L53.12 12.67L53.12 7.01L53.12 7.01Q53.12 6.41 53.10 6.00L53.10 6.00L53.10 6.00Q53.08 5.59 53.06 5.28L53.06 5.28L54.89 5.28L54.89 5.28Q54.91 5.40 54.95 6.03L54.95 6.03L54.95 6.03Q54.98 6.65 54.98 6.86L54.98 6.86L55.01 6.86L55.01 6.86Q55.29 6.08 55.51 5.76L55.51 5.76L55.51 5.76Q55.73 5.44 56.03 5.29L56.03 5.29L56.03 5.29Q56.33 5.13 56.78 5.13L56.78 5.13L56.78 5.13Q57.15 5.13 57.37 5.24L57.37 5.24L57.37 6.84L57.37 6.84Q56.91 6.74 56.55 6.74L56.55 6.74L56.55 6.74Q55.84 6.74 55.44 7.32L55.44 7.32L55.44 7.32Q55.04 7.90 55.04 9.04L55.04 9.04L55.04 12.67ZM61.59 12.81L61.59 12.81L61.59 12.81Q59.92 12.81 59.03 11.82L59.03 11.82L59.03 11.82Q58.13 10.83 58.13 8.94L58.13 8.94L58.13 8.94Q58.13 7.11 59.04 6.13L59.04 6.13L59.04 6.13Q59.95 5.14 61.62 5.14L61.62 5.14L61.62 5.14Q63.21 5.14 64.05 6.20L64.05 6.20L64.05 6.20Q64.89 7.25 64.89 9.29L64.89 9.29L64.89 9.34L60.15 9.34L60.15 9.34Q60.15 10.42 60.55 10.98L60.55 10.98L60.55 10.98Q60.95 11.53 61.69 11.53L61.69 11.53L61.69 11.53Q62.71 11.53 62.97 10.64L62.97 10.64L64.78 10.80L64.78 10.80Q64.00 12.81 61.59 12.81ZM61.59 6.35L61.59 6.35L61.59 6.35Q60.92 6.35 60.55 6.82L60.55 6.82L60.55 6.82Q60.18 7.29 60.16 8.14L60.16 8.14L63.03 8.14L63.03 8.14Q62.98 7.25 62.60 6.80L62.60 6.80L62.60 6.80Q62.23 6.35 61.59 6.35ZM79.00 12.67L77.01 12.67L76.15 10.21L72.48 10.21L71.63 12.67L69.61 12.67L73.12 3.04L75.50 3.04L79.00 12.67ZM74.46 5.00L74.31 4.53L74.27 4.68L74.27 4.68Q74.20 4.92 74.11 5.24L74.11 5.24L74.11 5.24Q74.01 5.55 72.93 8.70L72.93 8.70L75.70 8.70L74.75 5.93L74.46 5.00ZM87.35 8.94L87.35 8.94L87.35 8.94Q87.35 10.79 86.61 11.80L86.61 11.80L86.61 11.80Q85.87 12.81 84.51 12.81L84.51 12.81L84.51 12.81Q83.73 12.81 83.16 12.47L83.16 12.47L83.16 12.47Q82.58 12.13 82.27 11.50L82.27 11.50L82.23 11.50L82.23 11.50Q82.27 11.70 82.27 12.74L82.27 12.74L82.27 15.58L80.35 15.58L80.35 6.98L80.35 6.98Q80.35 5.93 80.29 5.28L80.29 5.28L82.16 5.28L82.16 5.28Q82.20 5.40 82.22 5.76L82.22 5.76L82.22 5.76Q82.24 6.13 82.24 6.48L82.24 6.48L82.27 6.48L82.27 6.48Q82.92 5.12 84.64 5.12L84.64 5.12L84.64 5.12Q85.93 5.12 86.64 6.11L86.64 6.11L86.64 6.11Q87.35 7.11 87.35 8.94ZM85.35 8.94L85.35 8.94L85.35 8.94Q85.35 6.45 83.82 6.45L83.82 6.45L83.82 6.45Q83.06 6.45 82.65 7.12L82.65 7.12L82.65 7.12Q82.24 7.79 82.24 9.00L82.24 9.00L82.24 9.00Q82.24 10.19 82.65 10.85L82.65 10.85L82.65 10.85Q83.06 11.50 83.81 11.50L83.81 11.50L83.81 11.50Q85.35 11.50 85.35 8.94ZM95.90 8.94L95.90 8.94L95.90 8.94Q95.90 10.79 95.16 11.80L95.16 11.80L95.16 11.80Q94.42 12.81 93.06 12.81L93.06 12.81L93.06 12.81Q92.29 12.81 91.71 12.47L91.71 12.47L91.71 12.47Q91.13 12.13 90.82 11.50L90.82 11.50L90.78 11.50L90.78 11.50Q90.82 11.70 90.82 12.74L90.82 12.74L90.82 15.58L88.90 15.58L88.90 6.98L88.90 6.98Q88.90 5.93 88.85 5.28L88.85 5.28L90.71 5.28L90.71 5.28Q90.75 5.40 90.77 5.76L90.77 5.76L90.77 5.76Q90.79 6.13 90.79 6.48L90.79 6.48L90.82 6.48L90.82 6.48Q91.47 5.12 93.19 5.12L93.19 5.12L93.19 5.12Q94.48 5.12 95.19 6.11L95.19 6.11L95.19 6.11Q95.90 7.11 95.90 8.94ZM93.90 8.94L93.90 8.94L93.90 8.94Q93.90 6.45 92.37 6.45L92.37 6.45L92.37 6.45Q91.61 6.45 91.20 7.12L91.20 7.12L91.20 7.12Q90.79 7.79 90.79 9.00L90.79 9.00L90.79 9.00Q90.79 10.19 91.20 10.85L91.20 10.85L91.20 10.85Q91.61 11.50 92.36 11.50L92.36 11.50L92.36 11.50Q93.90 11.50 93.90 8.94Z"></path></g><!----><g data-v-423bf9ae="" id="b2a82808-7bbc-42c0-bee8-a6321ecdec51" transform="matrix(1.1099889119466146,0,0,1.1099889119466146,0.5403435668432763,0.5822352954535717)" stroke="none" fill="white"><path clip-rule="evenodd" d="M37.129 48.614c-5.702-1.706-11.507-3.31-17.817-4.409-1.312-4.272-2.162-8.583-2.645-13.584-.151-1.59-.508-3.665-.176-5.117.471-2.057 5.136-6.457 6.703-7.938 3.049-2.883 5.71-4.331 8.824-5.645 2.342-.99 7.928-.003 10.76.706 3.04.76 5.658 1.962 7.76 3.352.834 4.055 1.35 8.297 1.942 12.877.179 1.4.738 3.29.527 4.411-.262 1.405-2.74 2.75-4.057 3.881-4.174 3.582-8.377 7.609-11.821 11.466z"></path><path d="M37.132 48.625l-.006-.001c-5.426-1.623-11.339-3.281-17.814-4.409-1.336-4.331-2.178-8.648-2.654-13.593-.029-.308-.067-.636-.105-.972-.159-1.396-.34-2.977-.072-4.148.471-2.045 5.139-6.461 6.672-7.911l.033-.031c3.046-2.881 5.731-4.34 8.826-5.648.658-.276 1.62-.417 2.856-.417 2.52 0 5.739.58 7.912 1.124 2.83.707 5.515 1.866 7.764 3.353.769 3.723 1.268 7.62 1.799 11.745l.146 1.139c.057.443.149.926.249 1.437.208 1.086.425 2.209.281 2.976-.191 1.025-1.573 2.03-2.79 2.916-.469.341-.91.664-1.271.971-4.44 3.812-8.527 7.777-11.82 11.467l-.006.002zm-2.264-37.112c-1.235 0-2.192.141-2.849.418-3.092 1.305-5.776 2.764-8.82 5.643l-.033.031c-1.533 1.45-6.2 5.862-6.667 7.903-.268 1.167-.086 2.747.073 4.14.038.337.075.664.105.972.476 4.945 1.317 9.261 2.646 13.583 6.468 1.121 12.379 2.777 17.804 4.4 3.292-3.689 7.38-7.652 11.818-11.462.36-.31.803-.633 1.271-.974 1.214-.885 2.591-1.886 2.784-2.902.143-.765-.073-1.886-.281-2.969-.098-.513-.192-.996-.249-1.438l-.146-1.139c-.53-4.125-1.03-8.022-1.796-11.738-2.242-1.478-4.925-2.636-7.752-3.344-2.173-.544-5.389-1.124-7.908-1.124z"></path><path clip-rule="evenodd" d="M82.822 26.74c4.388.904 7.845 2.742 11.114 4.762 1.155 2.908 2.214 6.13 3.176 9.528.937 3.304 2.188 7.222 1.765 10.936-.28 2.439-2.176 6.5-3.353 8.645-1.414 2.575-3.232 5.005-5.117 6.703a104.753 104.753 0 0 0-11.994-5.291c-.37-6.081-1.555-11.183-3.001-16.406-.395-1.424-1.498-3.804-1.411-4.94.114-1.492 3.371-5.367 4.232-6.704 1.85-2.851 3.142-5.037 4.589-7.233z"></path><path d="M90.41 67.327l-.006-.003a105.404 105.404 0 0 0-11.994-5.291c-.39-6.289-1.677-11.605-3.008-16.415-.131-.468-.336-1.034-.552-1.635-.43-1.192-.917-2.542-.857-3.308.084-1.094 1.846-3.458 3.132-5.184.469-.626.872-1.167 1.102-1.525.884-1.365 1.631-2.56 2.351-3.713.762-1.221 1.482-2.375 2.236-3.518 4.501.921 8.007 2.832 11.129 4.759 1.101 2.766 2.169 5.971 3.179 9.533.076.264.15.531.229.803.903 3.148 1.927 6.718 1.533 10.137-.288 2.536-2.317 6.767-3.351 8.649-1.466 2.67-3.284 5.053-5.117 6.705l-.006.006zM82.819 26.75a218 218 0 0 0-2.224 3.513c-.723 1.155-1.469 2.35-2.354 3.716-.229.358-.633.899-1.1 1.525-1.285 1.723-3.05 4.084-3.131 5.174-.06.76.428 2.108.857 3.299.219.6.423 1.168.552 1.637 1.334 4.811 2.616 10.128 3.001 16.409a104.672 104.672 0 0 1 11.985 5.28c1.831-1.652 3.646-4.03 5.108-6.697 1.031-1.883 3.06-6.108 3.35-8.641.391-3.416-.633-6.982-1.533-10.129a89 89 0 0 1-.229-.804c-1.01-3.561-2.078-6.765-3.177-9.525-3.112-1.923-6.613-3.832-11.105-4.757z"></path><path clip-rule="evenodd" d="M53.362 34.325c7.509 1.254 13.784 3.739 19.933 6.352 1.38 4.638 3.049 9.602 3.882 15.17.263 1.762.824 4.271.53 5.821-.262 1.372-2.167 2.873-3.354 4.058-3.812 3.814-7.431 7.441-11.994 10.233-7.541-1.342-14.284-3.474-20.287-6.352-1.241-4.845-2.283-9.846-3.351-15.17-.312-1.545-1.228-3.61-1.061-4.94.146-1.145 2.182-3.064 3.354-4.235 3.938-3.937 8.529-7.603 12.348-10.937z"></path><path d="M62.358 75.97h-.002c-7.426-1.323-14.253-3.46-20.29-6.352-1.31-5.097-2.418-10.506-3.357-15.181-.105-.526-.279-1.104-.463-1.715-.348-1.155-.706-2.351-.595-3.227.131-1.048 1.805-2.704 3.026-3.915l.329-.326c2.827-2.827 5.947-5.476 8.964-8.038a369.12 369.12 0 0 0 3.386-2.899c7.588 1.263 14.013 3.829 19.944 6.349.222.741.448 1.484.676 2.234 1.233 4.059 2.508 8.256 3.209 12.942.052.35.116.724.181 1.118.275 1.623.587 3.462.349 4.709-.208 1.096-1.46 2.27-2.563 3.306-.284.266-.55.517-.79.758l-.041.037c-3.809 3.814-7.406 7.412-11.956 10.195l-.007.005zm-8.999-41.636c-1.068.938-2.19 1.891-3.377 2.898-3.018 2.562-6.137 5.209-8.963 8.037-.103.104-.214.212-.327.327-1.152 1.139-2.891 2.861-3.021 3.902-.111.872.249 2.066.595 3.217.184.613.357 1.192.462 1.719.939 4.672 2.048 10.082 3.352 15.17 6.029 2.887 12.854 5.023 20.276 6.344 4.547-2.781 8.145-6.379 11.95-10.189l.041-.041c.241-.237.508-.489.789-.755 1.104-1.035 2.354-2.204 2.56-3.298.237-1.241-.073-3.078-.346-4.7-.067-.396-.131-.769-.184-1.115-.702-4.688-1.976-8.884-3.209-12.941-.228-.752-.455-1.495-.671-2.229-5.923-2.514-12.348-5.079-19.927-6.346z"></path><g><path clip-rule="evenodd" d="M41.539 70.138c6.246 2.754 12.822 5.172 20.642 6.351.763 2.019 1.154 4.164 1.766 6.525.507 1.956 1.886 4.652 1.588 6.53-.303 1.888-4.73 4.498-6.881 5.469-6.476 2.919-13.487 2.77-20.639.352-2.724-.919-7.225-2.718-8.645-4.235-1.248-1.331-2.064-4.14-2.648-6.174-.706-2.47-.979-4.827-1.233-7.584a123.16 123.16 0 0 0 16.05-7.234z"></path><path d="M48.388 97.199c-3.301 0-6.792-.612-10.377-1.823-3.159-1.071-7.319-2.82-8.648-4.24-1.261-1.344-2.098-4.254-2.653-6.178-.729-2.55-.998-5.044-1.23-7.587a124.692 124.692 0 0 0 16.056-7.241c5.531 2.435 12.303 5.094 20.647 6.349.544 1.429.898 2.919 1.274 4.495.157.66.319 1.343.498 2.04.157.595.39 1.252.636 1.947.57 1.612 1.16 3.276.952 4.583-.306 1.915-4.855 4.56-6.887 5.478-3.208 1.446-6.663 2.177-10.268 2.177zm-6.852-27.051a123.343 123.343 0 0 1-16.044 7.23c.24 2.529.51 5.023 1.238 7.573.554 1.924 1.39 4.83 2.648 6.171 1.325 1.417 5.483 3.164 8.64 4.229 3.582 1.212 7.071 1.829 10.371 1.829 3.603 0 7.055-.735 10.261-2.18 2.025-.914 6.572-3.555 6.875-5.458.209-1.304-.381-2.968-.951-4.574-.246-.695-.482-1.355-.637-1.95a98.032 98.032 0 0 1-.5-2.04c-.373-1.578-.728-3.068-1.264-4.488-8.34-1.248-15.114-3.907-20.637-6.342z"></path></g><g><path clip-rule="evenodd" d="M68.887 3.806c.124 2.597.323 5.241-.176 7.584-6.715.521-12.814 1.656-17.643 4.058-4.647-2.881-10.585-4.467-17.994-4.586-.108-2.539-.095-5.198-.352-7.586 9.62-4.498 27.053-4.269 36.165.53z"></path><path d="M51.066 15.459l-.003-.002c-4.721-2.927-10.772-4.469-17.989-4.585a88.62 88.62 0 0 1-.087-2.396c-.047-1.746-.096-3.551-.275-5.199C37.105 1.216 43.467.04 50.173.04c7.36 0 14.182 1.37 18.715 3.758.02.253.03.498.044.743.118 2.325.24 4.728-.214 6.853-7.672.602-13.276 1.891-17.647 4.063l-.005.002zM50.173.058c-6.704 0-13.062 1.177-17.447 3.227.184 1.638.232 3.444.281 5.191.021.786.043 1.597.076 2.386 7.21.107 13.264 1.648 17.985 4.575 4.371-2.173 9.976-3.462 17.643-4.056.442-2.114.318-4.516.202-6.839-.014-.245-.024-.491-.037-.736C64.35 1.427 57.53.058 50.173.058z"></path><path clip-rule="evenodd" d="M69.768 4.159c11.855 4.963 20.377 13.259 25.579 24.875-.481.518-.812 1.186-1.233 1.763-3.252-2.041-6.961-3.623-11.114-4.762-4.069-5.282-7.902-10.797-13.583-14.467.178-2.408.47-4.703.351-7.409z"></path><path d="M94.116 30.81l-.009-.006c-3.216-2.019-6.955-3.62-11.111-4.76-.467-.601-.923-1.201-1.38-1.802-3.524-4.627-7.169-9.412-12.206-12.666.035-.531.079-1.047.122-1.563.157-1.836.319-3.734.225-5.854v-.014l.014.005c11.794 4.937 20.401 13.307 25.583 24.879-.299.333-.546.721-.784 1.096-.144.226-.291.459-.449.677l-.005.008zM69.776 4.174c.092 2.114-.068 4.009-.225 5.84-.044.517-.087 1.034-.128 1.556 5.037 3.246 8.684 8.032 12.208 12.661.457.601.915 1.201 1.374 1.799 4.149 1.134 7.888 2.736 11.104 4.754.156-.215.303-.446.443-.669.238-.376.486-.765.784-1.088-5.179-11.552-13.777-19.918-25.56-24.853z"></path><path clip-rule="evenodd" d="M15.784 25.504c.347 6.89 1.006 13.462 3 18.702-3.154 4.727-6.073 9.686-7.057 16.582-2.476.792-6.3.624-8.821 0-3.192-4.174-2.96-12.652-1.94-18.876 1.016-6.205 3.144-11.958 5.646-16.054 2.456-1.121 6.273-.991 9.172-.354z"></path><path d="M7.612 61.33c-1.625 0-3.339-.194-4.707-.535C-.949 55.764.44 45.068.958 41.91c.967-5.916 3.024-11.768 5.646-16.058 1.208-.551 2.846-.843 4.742-.843 1.439 0 3.016.174 4.44.486.318 6.172.916 13.211 3.006 18.707-3.019 4.533-6.05 9.539-7.054 16.588-1.098.356-2.523.54-4.126.54zm3.734-36.3c-1.894 0-3.529.289-4.731.837C4.002 30.15 1.943 36.001.978 41.913.461 45.07-.928 55.755 2.914 60.782c1.36.333 3.076.527 4.698.527 1.603 0 3.024-.184 4.113-.53.998-7.043 4.03-12.053 7.052-16.579-2.094-5.49-2.691-12.531-3.003-18.696a21.83 21.83 0 0 0-4.428-.474z"></path><path clip-rule="evenodd" d="M99.582 53.201c.202-.027.314.041.352.177-.84 12.08-5.444 21.166-11.466 28.402-.752.903-1.413 2.451-2.821 2.47-.528-1.31.694-2.595 1.233-3.704 1.714-3.542 3.396-7.868 4.058-12.702 3.851-3.911 6.449-9.078 8.644-14.643z"></path><path d="M85.638 84.259v-.006c-.4-.99.208-1.985.747-2.861.181-.299.352-.577.486-.851 2.17-4.482 3.499-8.638 4.058-12.697 4.239-4.312 6.847-10.09 8.646-14.645a.307.307 0 0 1 .092-.014c.148 0 .243.062.279.189-.75 10.744-4.502 20.035-11.472 28.41a9.556 9.556 0 0 0-.51.696c-.576.824-1.228 1.763-2.317 1.777h-.009zm14.028-31.055c-.024 0-.054.003-.084.006-1.791 4.55-4.398 10.333-8.637 14.64-.557 4.06-1.885 8.215-4.059 12.699-.132.272-.305.556-.485.853-.535.87-1.14 1.858-.749 2.84 1.078-.021 1.726-.952 2.296-1.771.173-.251.34-.489.511-.695 6.968-8.375 10.718-17.66 11.466-28.396-.034-.116-.118-.176-.259-.176z"></path><g><path clip-rule="evenodd" d="M11.551 61.492c3.284 6.536 7.742 11.896 13.408 16.055.05 5.537 2.087 10.027 3.528 13.582-2.25.502-4.904-.003-6.88-.352A50.837 50.837 0 0 1 6.612 74.016c-1.958-3.522-3.8-6.811-3.706-12.349 2.573.25 6.327.394 8.645-.175z"></path><path d="M26.371 91.35c-1.58 0-3.215-.287-4.53-.52l-.235-.043c-6.134-4.345-11.322-10.141-15.003-16.765l-.029-.049c-1.939-3.495-3.773-6.792-3.676-12.306v-.011l.01.003a46.92 46.92 0 0 0 4.327.217c1.796 0 3.249-.131 4.314-.396 3.294 6.541 7.804 11.939 13.417 16.057.048 5.103 1.782 9.322 3.176 12.714l.356.874.003.01-.011.003a9.752 9.752 0 0 1-2.119.212zM2.917 61.679c-.095 5.503 1.736 8.797 3.675 12.284l.028.049c3.679 6.621 8.865 12.415 14.993 16.76l.231.037c1.314.232 2.948.522 4.527.522.772 0 1.479-.07 2.104-.208-.114-.281-.232-.568-.353-.86-1.393-3.396-3.126-7.616-3.172-12.716-5.61-4.109-10.122-9.514-13.408-16.049-1.056.265-2.508.4-4.307.4-1.702 0-3.284-.119-4.318-.219z"></path></g><g><path clip-rule="evenodd" d="M49.48 99.422c-.098-.257.206-.912-.176-.882 6.89-1.579 13.119-3.813 16.933-8.467 7.629-.314 13.904-1.977 18.173-5.648 2.143.734-1.012 2.638-2.294 3.706-7.655 6.368-19.451 12.33-32.636 11.291z"></path><path d="M52.497 99.551c-1.006 0-2.021-.043-3.018-.118-.044-.103-.026-.254-.006-.403.021-.175.044-.354-.027-.435-.029-.036-.073-.043-.141-.043l-.003-.023c6.084-1.393 12.852-3.488 16.931-8.462 8.202-.339 14.145-2.184 18.172-5.646.449.146.692.356.735.623.114.709-1.19 1.697-2.235 2.486-.29.222-.564.427-.783.609-4.123 3.43-15.265 11.412-29.625 11.412zm-3.122-1.017a.148.148 0 0 1 .087.046c.075.091.052.274.029.452-.019.146-.037.292-.003.384.989.076 2.003.113 3.009.113 14.354 0 25.491-7.976 29.613-11.407.217-.181.492-.386.782-.607 1.041-.788 2.339-1.769 2.229-2.468-.043-.259-.283-.465-.714-.61-4.021 3.462-9.968 5.31-18.17 5.646-4.056 4.954-10.792 7.056-16.862 8.451z"></path></g><g><path d="M50.111 99.666C22.569 99.666.163 77.26.163 49.717c0-27.542 22.406-49.95 49.948-49.95s49.948 22.408 49.948 49.95c0 27.543-22.406 49.949-49.948 49.949zm0-98.514c-26.777 0-48.563 21.786-48.563 48.565 0 26.777 21.786 48.563 48.563 48.563 26.779 0 48.562-21.786 48.562-48.563 0-26.779-21.783-48.565-48.562-48.565z"></path></g></g></g><!----><g data-v-423bf9ae="" id="1ef568a9-30aa-4253-9d42-33d6d30e3d09" fill="white" transform="matrix(1.9002130302286664,0,0,1.9002130302286664,129.23026529130766,55.19246209498255)"><path d="M0.87 5.28L2.79 5.28L2.79 9.43L2.79 9.43Q2.79 11.38 4.10 11.38L4.10 11.38L4.10 11.38Q4.80 11.38 5.23 10.78L5.23 10.78L5.23 10.78Q5.65 10.18 5.65 9.24L5.65 9.24L5.65 5.28L7.57 5.28L7.57 11.02L7.57 11.02Q7.57 11.96 7.63 12.67L7.63 12.67L5.80 12.67L5.80 12.67Q5.71 11.69 5.71 11.20L5.71 11.20L5.68 11.20L5.68 11.20Q5.30 12.04 4.71 12.43L4.71 12.43L4.71 12.43Q4.12 12.81 3.30 12.81L3.30 12.81L3.30 12.81Q2.13 12.81 1.50 12.09L1.50 12.09L1.50 12.09Q0.87 11.37 0.87 9.97L0.87 9.97L0.87 5.28ZM11.45 12.67L9.53 12.67L9.53 2.53L11.45 2.53L11.45 12.67ZM15.31 12.80L15.31 12.80L15.31 12.80Q14.46 12.80 14.01 12.34L14.01 12.34L14.01 12.34Q13.55 11.87 13.55 10.94L13.55 10.94L13.55 6.58L12.61 6.58L12.61 5.28L13.64 5.28L14.25 3.54L15.45 3.54L15.45 5.28L16.85 5.28L16.85 6.58L15.45 6.58L15.45 10.42L15.45 10.42Q15.45 10.96 15.65 11.21L15.65 11.21L15.65 11.21Q15.86 11.47 16.29 11.47L16.29 11.47L16.29 11.47Q16.52 11.47 16.93 11.38L16.93 11.38L16.93 12.56L16.93 12.56Q16.22 12.80 15.31 12.80ZM20.00 3.94L18.08 3.94L18.08 2.53L20.00 2.53L20.00 3.94ZM20.00 12.67L18.08 12.67L18.08 5.28L20.00 5.28L20.00 12.67ZM28.23 12.67L26.33 12.67L26.33 8.52L26.33 8.52Q26.33 6.58 25.20 6.58L25.20 6.58L25.20 6.58Q24.62 6.58 24.26 7.17L24.26 7.17L24.26 7.17Q23.89 7.77 23.89 8.71L23.89 8.71L23.89 12.67L21.97 12.67L21.97 6.93L21.97 6.93Q21.97 6.34 21.95 5.96L21.95 5.96L21.95 5.96Q21.94 5.58 21.92 5.28L21.92 5.28L23.75 5.28L23.75 5.28Q23.77 5.41 23.80 5.97L23.80 5.97L23.80 5.97Q23.84 6.54 23.84 6.75L23.84 6.75L23.86 6.75L23.86 6.75Q24.22 5.90 24.75 5.52L24.75 5.52L24.75 5.52Q25.28 5.13 26.02 5.13L26.02 5.13L26.02 5.13Q27.71 5.13 28.08 6.75L28.08 6.75L28.12 6.75L28.12 6.75Q28.49 5.89 29.02 5.51L29.02 5.51L29.02 5.51Q29.54 5.13 30.36 5.13L30.36 5.13L30.36 5.13Q31.44 5.13 32.01 5.87L32.01 5.87L32.01 5.87Q32.57 6.60 32.57 7.98L32.57 7.98L32.57 12.67L30.67 12.67L30.67 8.52L30.67 8.52Q30.67 6.58 29.54 6.58L29.54 6.58L29.54 6.58Q28.98 6.58 28.63 7.12L28.63 7.12L28.63 7.12Q28.27 7.66 28.23 8.62L28.23 8.62L28.23 12.67ZM36.13 12.81L36.13 12.81L36.13 12.81Q35.05 12.81 34.45 12.23L34.45 12.23L34.45 12.23Q33.85 11.64 33.85 10.58L33.85 10.58L33.85 10.58Q33.85 9.43 34.60 8.83L34.60 8.83L34.60 8.83Q35.35 8.23 36.77 8.22L36.77 8.22L38.36 8.19L38.36 7.81L38.36 7.81Q38.36 7.09 38.11 6.74L38.11 6.74L38.11 6.74Q37.86 6.38 37.28 6.38L37.28 6.38L37.28 6.38Q36.75 6.38 36.50 6.63L36.50 6.63L36.50 6.63Q36.25 6.87 36.19 7.43L36.19 7.43L34.19 7.33L34.19 7.33Q34.37 6.25 35.17 5.70L35.17 5.70L35.17 5.70Q35.98 5.14 37.37 5.14L37.37 5.14L37.37 5.14Q38.77 5.14 39.53 5.83L39.53 5.83L39.53 5.83Q40.28 6.52 40.28 7.79L40.28 7.79L40.28 10.49L40.28 10.49Q40.28 11.11 40.42 11.34L40.42 11.34L40.42 11.34Q40.56 11.58 40.89 11.58L40.89 11.58L40.89 11.58Q41.11 11.58 41.32 11.54L41.32 11.54L41.32 12.58L41.32 12.58Q41.15 12.62 41.01 12.65L41.01 12.65L41.01 12.65Q40.87 12.69 40.74 12.71L40.74 12.71L40.74 12.71Q40.60 12.73 40.44 12.74L40.44 12.74L40.44 12.74Q40.29 12.76 40.09 12.76L40.09 12.76L40.09 12.76Q39.36 12.76 39.02 12.40L39.02 12.40L39.02 12.40Q38.67 12.04 38.60 11.35L38.60 11.35L38.56 11.35L38.56 11.35Q37.75 12.81 36.13 12.81ZM38.36 9.63L38.36 9.25L37.38 9.26L37.38 9.26Q36.71 9.29 36.43 9.41L36.43 9.41L36.43 9.41Q36.15 9.53 36.00 9.78L36.00 9.78L36.00 9.78Q35.85 10.02 35.85 10.43L35.85 10.43L35.85 10.43Q35.85 10.96 36.10 11.21L36.10 11.21L36.10 11.21Q36.34 11.47 36.74 11.47L36.74 11.47L36.74 11.47Q37.19 11.47 37.57 11.22L37.57 11.22L37.57 11.22Q37.94 10.98 38.15 10.54L38.15 10.54L38.15 10.54Q38.36 10.11 38.36 9.63L38.36 9.63ZM44.10 12.80L44.10 12.80L44.10 12.80Q43.25 12.80 42.79 12.34L42.79 12.34L42.79 12.34Q42.33 11.87 42.33 10.94L42.33 10.94L42.33 6.58L41.40 6.58L41.40 5.28L42.43 5.28L43.03 3.54L44.24 3.54L44.24 5.28L45.64 5.28L45.64 6.58L44.24 6.58L44.24 10.42L44.24 10.42Q44.24 10.96 44.44 11.21L44.44 11.21L44.44 11.21Q44.65 11.47 45.08 11.47L45.08 11.47L45.08 11.47Q45.30 11.47 45.72 11.38L45.72 11.38L45.72 12.56L45.72 12.56Q45.01 12.80 44.10 12.80ZM49.90 12.81L49.90 12.81L49.90 12.81Q48.23 12.81 47.33 11.82L47.33 11.82L47.33 11.82Q46.44 10.83 46.44 8.94L46.44 8.94L46.44 8.94Q46.44 7.11 47.35 6.13L47.35 6.13L47.35 6.13Q48.25 5.14 49.92 5.14L49.92 5.14L49.92 5.14Q51.52 5.14 52.36 6.20L52.36 6.20L52.36 6.20Q53.20 7.25 53.20 9.29L53.20 9.29L53.20 9.34L48.45 9.34L48.45 9.34Q48.45 10.42 48.85 10.98L48.85 10.98L48.85 10.98Q49.25 11.53 49.99 11.53L49.99 11.53L49.99 11.53Q51.01 11.53 51.28 10.64L51.28 10.64L53.09 10.80L53.09 10.80Q52.30 12.81 49.90 12.81ZM49.90 6.35L49.90 6.35L49.90 6.35Q49.22 6.35 48.85 6.82L48.85 6.82L48.85 6.82Q48.49 7.29 48.47 8.14L48.47 8.14L51.34 8.14L51.34 8.14Q51.28 7.25 50.91 6.80L50.91 6.80L50.91 6.80Q50.53 6.35 49.90 6.35ZM62.25 6.58L60.80 6.58L60.80 12.67L58.88 12.67L58.88 6.58L57.80 6.58L57.80 5.28L58.88 5.28L58.88 4.50L58.88 4.50Q58.88 3.50 59.42 3.01L59.42 3.01L59.42 3.01Q59.95 2.53 61.04 2.53L61.04 2.53L61.04 2.53Q61.58 2.53 62.25 2.64L62.25 2.64L62.25 3.88L62.25 3.88Q61.97 3.81 61.69 3.81L61.69 3.81L61.69 3.81Q61.20 3.81 61.00 4.01L61.00 4.01L61.00 4.01Q60.80 4.20 60.80 4.70L60.80 4.70L60.80 5.28L62.25 5.28L62.25 6.58ZM70.23 8.97L70.23 8.97L70.23 8.97Q70.23 10.77 69.23 11.79L69.23 11.79L69.23 11.79Q68.24 12.81 66.47 12.81L66.47 12.81L66.47 12.81Q64.74 12.81 63.76 11.79L63.76 11.79L63.76 11.79Q62.77 10.76 62.77 8.97L62.77 8.97L62.77 8.97Q62.77 7.18 63.76 6.16L63.76 6.16L63.76 6.16Q64.74 5.14 66.51 5.14L66.51 5.14L66.51 5.14Q68.33 5.14 69.28 6.13L69.28 6.13L69.28 6.13Q70.23 7.12 70.23 8.97ZM68.22 8.97L68.22 8.97L68.22 8.97Q68.22 7.65 67.79 7.05L67.79 7.05L67.79 7.05Q67.36 6.46 66.54 6.46L66.54 6.46L66.54 6.46Q64.79 6.46 64.79 8.97L64.79 8.97L64.79 8.97Q64.79 10.21 65.22 10.85L65.22 10.85L65.22 10.85Q65.65 11.50 66.45 11.50L66.45 11.50L66.45 11.50Q68.22 11.50 68.22 8.97ZM78.78 8.97L78.78 8.97L78.78 8.97Q78.78 10.77 77.79 11.79L77.79 11.79L77.79 11.79Q76.79 12.81 75.02 12.81L75.02 12.81L75.02 12.81Q73.29 12.81 72.31 11.79L72.31 11.79L72.31 11.79Q71.33 10.76 71.33 8.97L71.33 8.97L71.33 8.97Q71.33 7.18 72.31 6.16L72.31 6.16L72.31 6.16Q73.29 5.14 75.07 5.14L75.07 5.14L75.07 5.14Q76.88 5.14 77.83 6.13L77.83 6.13L77.83 6.13Q78.78 7.12 78.78 8.97ZM76.77 8.97L76.77 8.97L76.77 8.97Q76.77 7.65 76.34 7.05L76.34 7.05L76.34 7.05Q75.91 6.46 75.09 6.46L75.09 6.46L75.09 6.46Q73.34 6.46 73.34 8.97L73.34 8.97L73.34 8.97Q73.34 10.21 73.77 10.85L73.77 10.85L73.77 10.85Q74.20 11.50 75.00 11.50L75.00 11.50L75.00 11.50Q76.77 11.50 76.77 8.97ZM82.20 12.80L82.20 12.80L82.20 12.80Q81.35 12.80 80.90 12.34L80.90 12.34L80.90 12.34Q80.44 11.87 80.44 10.94L80.44 10.94L80.44 6.58L79.50 6.58L79.50 5.28L80.53 5.28L81.14 3.54L82.34 3.54L82.34 5.28L83.74 5.28L83.74 6.58L82.34 6.58L82.34 10.42L82.34 10.42Q82.34 10.96 82.54 11.21L82.54 11.21L82.54 11.21Q82.75 11.47 83.18 11.47L83.18 11.47L83.18 11.47Q83.41 11.47 83.82 11.38L83.82 11.38L83.82 12.56L83.82 12.56Q83.11 12.80 82.20 12.80ZM91.97 8.95L91.97 8.95L91.97 8.95Q91.97 10.78 91.24 11.80L91.24 11.80L91.24 11.80Q90.50 12.81 89.13 12.81L89.13 12.81L89.13 12.81Q88.35 12.81 87.77 12.47L87.77 12.47L87.77 12.47Q87.20 12.13 86.89 11.48L86.89 11.48L86.88 11.48L86.88 11.48Q86.88 11.72 86.85 12.14L86.85 12.14L86.85 12.14Q86.82 12.56 86.78 12.67L86.78 12.67L84.92 12.67L84.92 12.67Q84.97 12.04 84.97 10.99L84.97 10.99L84.97 2.53L86.89 2.53L86.89 5.36L86.86 6.56L86.89 6.56L86.89 6.56Q87.54 5.14 89.26 5.14L89.26 5.14L89.26 5.14Q90.57 5.14 91.27 6.14L91.27 6.14L91.27 6.14Q91.97 7.13 91.97 8.95ZM89.97 8.95L89.97 8.95L89.97 8.95Q89.97 7.69 89.60 7.08L89.60 7.08L89.60 7.08Q89.23 6.47 88.46 6.47L88.46 6.47L88.46 6.47Q87.68 6.47 87.27 7.13L87.27 7.13L87.27 7.13Q86.86 7.78 86.86 9.01L86.86 9.01L86.86 9.01Q86.86 10.19 87.26 10.84L87.26 10.84L87.26 10.84Q87.66 11.50 88.44 11.50L88.44 11.50L88.44 11.50Q89.97 11.50 89.97 8.95ZM95.23 12.81L95.23 12.81L95.23 12.81Q94.16 12.81 93.56 12.23L93.56 12.23L93.56 12.23Q92.96 11.64 92.96 10.58L92.96 10.58L92.96 10.58Q92.96 9.43 93.70 8.83L93.70 8.83L93.70 8.83Q94.45 8.23 95.87 8.22L95.87 8.22L97.47 8.19L97.47 7.81L97.47 7.81Q97.47 7.09 97.21 6.74L97.21 6.74L97.21 6.74Q96.96 6.38 96.39 6.38L96.39 6.38L96.39 6.38Q95.85 6.38 95.60 6.63L95.60 6.63L95.60 6.63Q95.35 6.87 95.29 7.43L95.29 7.43L93.29 7.33L93.29 7.33Q93.47 6.25 94.28 5.70L94.28 5.70L94.28 5.70Q95.08 5.14 96.47 5.14L96.47 5.14L96.47 5.14Q97.87 5.14 98.63 5.83L98.63 5.83L98.63 5.83Q99.39 6.52 99.39 7.79L99.39 7.79L99.39 10.49L99.39 10.49Q99.39 11.11 99.53 11.34L99.53 11.34L99.53 11.34Q99.67 11.58 100.00 11.58L100.00 11.58L100.00 11.58Q100.21 11.58 100.42 11.54L100.42 11.54L100.42 12.58L100.42 12.58Q100.25 12.62 100.11 12.65L100.11 12.65L100.11 12.65Q99.98 12.69 99.84 12.71L99.84 12.71L99.84 12.71Q99.70 12.73 99.55 12.74L99.55 12.74L99.55 12.74Q99.39 12.76 99.19 12.76L99.19 12.76L99.19 12.76Q98.46 12.76 98.12 12.40L98.12 12.40L98.12 12.40Q97.77 12.04 97.71 11.35L97.71 11.35L97.67 11.35L97.67 11.35Q96.86 12.81 95.23 12.81ZM97.47 9.63L97.47 9.25L96.48 9.26L96.48 9.26Q95.81 9.29 95.53 9.41L95.53 9.41L95.53 9.41Q95.25 9.53 95.10 9.78L95.10 9.78L95.10 9.78Q94.96 10.02 94.96 10.43L94.96 10.43L94.96 10.43Q94.96 10.96 95.20 11.21L95.20 11.21L95.20 11.21Q95.44 11.47 95.85 11.47L95.85 11.47L95.85 11.47Q96.30 11.47 96.67 11.22L96.67 11.22L96.67 11.22Q97.04 10.98 97.25 10.54L97.25 10.54L97.25 10.54Q97.47 10.11 97.47 9.63L97.47 9.63ZM103.23 12.67L101.31 12.67L101.31 2.53L103.23 2.53L103.23 12.67ZM107.12 12.67L105.20 12.67L105.20 2.53L107.12 2.53L107.12 12.67ZM116.01 12.81L116.01 12.81L116.01 12.81Q114.34 12.81 113.44 11.82L113.44 11.82L113.44 11.82Q112.55 10.83 112.55 8.94L112.55 8.94L112.55 8.94Q112.55 7.11 113.46 6.13L113.46 6.13L113.46 6.13Q114.37 5.14 116.03 5.14L116.03 5.14L116.03 5.14Q117.63 5.14 118.47 6.20L118.47 6.20L118.47 6.20Q119.31 7.25 119.31 9.29L119.31 9.29L119.31 9.34L114.56 9.34L114.56 9.34Q114.56 10.42 114.96 10.98L114.96 10.98L114.96 10.98Q115.36 11.53 116.10 11.53L116.10 11.53L116.10 11.53Q117.12 11.53 117.39 10.64L117.39 10.64L119.20 10.80L119.20 10.80Q118.41 12.81 116.01 12.81ZM116.01 6.35L116.01 6.35L116.01 6.35Q115.33 6.35 114.96 6.82L114.96 6.82L114.96 6.82Q114.60 7.29 114.58 8.14L114.58 8.14L117.45 8.14L117.45 8.14Q117.39 7.25 117.02 6.80L117.02 6.80L117.02 6.80Q116.64 6.35 116.01 6.35ZM127.47 12.67L125.38 12.67L123.66 9.99L121.93 12.67L119.88 12.67L122.59 8.85L120.01 5.28L122.08 5.28L123.66 7.70L125.23 5.28L127.32 5.28L124.74 8.83L127.47 12.67ZM135.55 8.94L135.55 8.94L135.55 8.94Q135.55 10.79 134.81 11.80L134.81 11.80L134.81 11.80Q134.07 12.81 132.71 12.81L132.71 12.81L132.71 12.81Q131.93 12.81 131.36 12.47L131.36 12.47L131.36 12.47Q130.78 12.13 130.47 11.50L130.47 11.50L130.43 11.50L130.43 11.50Q130.47 11.70 130.47 12.74L130.47 12.74L130.47 15.58L128.55 15.58L128.55 6.98L128.55 6.98Q128.55 5.93 128.50 5.28L128.50 5.28L130.36 5.28L130.36 5.28Q130.40 5.40 130.42 5.76L130.42 5.76L130.42 5.76Q130.44 6.13 130.44 6.48L130.44 6.48L130.47 6.48L130.47 6.48Q131.12 5.12 132.84 5.12L132.84 5.12L132.84 5.12Q134.13 5.12 134.84 6.11L134.84 6.11L134.84 6.11Q135.55 7.11 135.55 8.94ZM133.55 8.94L133.55 8.94L133.55 8.94Q133.55 6.45 132.02 6.45L132.02 6.45L132.02 6.45Q131.26 6.45 130.85 7.12L130.85 7.12L130.85 7.12Q130.44 7.79 130.44 9.00L130.44 9.00L130.44 9.00Q130.44 10.19 130.85 10.85L130.85 10.85L130.85 10.85Q131.26 11.50 132.01 11.50L132.01 11.50L132.01 11.50Q133.55 11.50 133.55 8.94ZM140.13 12.81L140.13 12.81L140.13 12.81Q138.46 12.81 137.57 11.82L137.57 11.82L137.57 11.82Q136.67 10.83 136.67 8.94L136.67 8.94L136.67 8.94Q136.67 7.11 137.58 6.13L137.58 6.13L137.58 6.13Q138.49 5.14 140.16 5.14L140.16 5.14L140.16 5.14Q141.75 5.14 142.59 6.20L142.59 6.20L142.59 6.20Q143.43 7.25 143.43 9.29L143.43 9.29L143.43 9.34L138.69 9.34L138.69 9.34Q138.69 10.42 139.09 10.98L139.09 10.98L139.09 10.98Q139.49 11.53 140.23 11.53L140.23 11.53L140.23 11.53Q141.24 11.53 141.51 10.64L141.51 10.64L143.32 10.80L143.32 10.80Q142.54 12.81 140.13 12.81ZM140.13 6.35L140.13 6.35L140.13 6.35Q139.45 6.35 139.09 6.82L139.09 6.82L139.09 6.82Q138.72 7.29 138.70 8.14L138.70 8.14L141.57 8.14L141.57 8.14Q141.52 7.25 141.14 6.80L141.14 6.80L141.14 6.80Q140.77 6.35 140.13 6.35ZM146.81 12.67L144.89 12.67L144.89 7.01L144.89 7.01Q144.89 6.41 144.87 6.00L144.87 6.00L144.87 6.00Q144.85 5.59 144.83 5.28L144.83 5.28L146.67 5.28L146.67 5.28Q146.69 5.40 146.72 6.03L146.72 6.03L146.72 6.03Q146.75 6.65 146.75 6.86L146.75 6.86L146.78 6.86L146.78 6.86Q147.06 6.08 147.28 5.76L147.28 5.76L147.28 5.76Q147.50 5.44 147.80 5.29L147.80 5.29L147.80 5.29Q148.10 5.13 148.55 5.13L148.55 5.13L148.55 5.13Q148.92 5.13 149.15 5.24L149.15 5.24L149.15 6.84L149.15 6.84Q148.68 6.74 148.33 6.74L148.33 6.74L148.33 6.74Q147.61 6.74 147.21 7.32L147.21 7.32L147.21 7.32Q146.81 7.90 146.81 9.04L146.81 9.04L146.81 12.67ZM152.26 3.94L150.34 3.94L150.34 2.53L152.26 2.53L152.26 3.94ZM152.26 12.67L150.34 12.67L150.34 5.28L152.26 5.28L152.26 12.67ZM157.25 12.81L157.25 12.81L157.25 12.81Q155.59 12.81 154.69 11.82L154.69 11.82L154.69 11.82Q153.79 10.83 153.79 8.94L153.79 8.94L153.79 8.94Q153.79 7.11 154.70 6.13L154.70 6.13L154.70 6.13Q155.61 5.14 157.28 5.14L157.28 5.14L157.28 5.14Q158.87 5.14 159.71 6.20L159.71 6.20L159.71 6.20Q160.56 7.25 160.56 9.29L160.56 9.29L160.56 9.34L155.81 9.34L155.81 9.34Q155.81 10.42 156.21 10.98L156.21 10.98L156.21 10.98Q156.61 11.53 157.35 11.53L157.35 11.53L157.35 11.53Q158.37 11.53 158.63 10.64L158.63 10.64L160.45 10.80L160.45 10.80Q159.66 12.81 157.25 12.81ZM157.25 6.35L157.25 6.35L157.25 6.35Q156.58 6.35 156.21 6.82L156.21 6.82L156.21 6.82Q155.85 7.29 155.83 8.14L155.83 8.14L158.70 8.14L158.70 8.14Q158.64 7.25 158.27 6.80L158.27 6.80L158.27 6.80Q157.89 6.35 157.25 6.35ZM168.72 12.67L166.80 12.67L166.80 8.52L166.80 8.52Q166.80 6.58 165.48 6.58L165.48 6.58L165.48 6.58Q164.79 6.58 164.36 7.17L164.36 7.17L164.36 7.17Q163.93 7.77 163.93 8.71L163.93 8.71L163.93 12.67L162.01 12.67L162.01 6.93L162.01 6.93Q162.01 6.34 161.99 5.96L161.99 5.96L161.99 5.96Q161.98 5.58 161.96 5.28L161.96 5.28L163.79 5.28L163.79 5.28Q163.81 5.41 163.84 5.97L163.84 5.97L163.84 5.97Q163.88 6.54 163.88 6.75L163.88 6.75L163.91 6.75L163.91 6.75Q164.29 5.90 164.88 5.52L164.88 5.52L164.88 5.52Q165.47 5.13 166.28 5.13L166.28 5.13L166.28 5.13Q167.46 5.13 168.09 5.86L168.09 5.86L168.09 5.86Q168.72 6.58 168.72 7.98L168.72 7.98L168.72 12.67ZM173.65 12.81L173.65 12.81L173.65 12.81Q171.96 12.81 171.05 11.81L171.05 11.81L171.05 11.81Q170.13 10.81 170.13 9.02L170.13 9.02L170.13 9.02Q170.13 7.18 171.06 6.16L171.06 6.16L171.06 6.16Q171.98 5.14 173.67 5.14L173.67 5.14L173.67 5.14Q174.98 5.14 175.83 5.80L175.83 5.80L175.83 5.80Q176.69 6.45 176.91 7.61L176.91 7.61L174.97 7.70L174.97 7.70Q174.89 7.14 174.56 6.80L174.56 6.80L174.56 6.80Q174.23 6.46 173.63 6.46L173.63 6.46L173.63 6.46Q172.15 6.46 172.15 8.94L172.15 8.94L172.15 8.94Q172.15 11.50 173.66 11.50L173.66 11.50L173.66 11.50Q174.21 11.50 174.58 11.15L174.58 11.15L174.58 11.15Q174.95 10.81 175.03 10.12L175.03 10.12L176.96 10.21L176.96 10.21Q176.86 10.97 176.42 11.57L176.42 11.57L176.42 11.57Q175.98 12.16 175.26 12.49L175.26 12.49L175.26 12.49Q174.54 12.81 173.65 12.81ZM181.38 12.81L181.38 12.81L181.38 12.81Q179.71 12.81 178.81 11.82L178.81 11.82L178.81 11.82Q177.92 10.83 177.92 8.94L177.92 8.94L177.92 8.94Q177.92 7.11 178.83 6.13L178.83 6.13L178.83 6.13Q179.74 5.14 181.41 5.14L181.41 5.14L181.41 5.14Q183.00 5.14 183.84 6.20L183.84 6.20L183.84 6.20Q184.68 7.25 184.68 9.29L184.68 9.29L184.68 9.34L179.94 9.34L179.94 9.34Q179.94 10.42 180.34 10.98L180.34 10.98L180.34 10.98Q180.74 11.53 181.47 11.53L181.47 11.53L181.47 11.53Q182.49 11.53 182.76 10.64L182.76 10.64L184.57 10.80L184.57 10.80Q183.78 12.81 181.38 12.81ZM181.38 6.35L181.38 6.35L181.38 6.35Q180.70 6.35 180.34 6.82L180.34 6.82L180.34 6.82Q179.97 7.29 179.95 8.14L179.95 8.14L182.82 8.14L182.82 8.14Q182.77 7.25 182.39 6.80L182.39 6.80L182.39 6.80Q182.01 6.35 181.38 6.35Z"></path></g></svg>