<svg data-v-423bf9ae="" xmlns="http://www.w3.org/2000/svg" viewBox="0 0 436.597690558924 60" class="font"><!----><!----><!----><g data-v-423bf9ae="" id="c966ece3-a83c-4389-9ee2-54adc0cb0805" fill="black" transform="matrix(4.597701082226675,0,0,4.597701082226675,-4.321839745537119,-11.632183844910784)"><path d="M8.12 12.67L0.94 12.67L0.94 3.04L2.95 3.04L2.95 11.12L8.12 11.12L8.12 12.67ZM11.45 3.94L9.53 3.94L9.53 2.53L11.45 2.53L11.45 3.94ZM11.45 12.67L9.53 12.67L9.53 5.28L11.45 5.28L11.45 12.67ZM20.17 5.28L17.44 12.67L15.14 12.67L12.50 5.28L14.53 5.28L15.82 9.41L15.82 9.41Q15.92 9.75 16.30 11.12L16.30 11.12L16.30 11.12Q16.37 10.84 16.58 10.14L16.58 10.14L16.58 10.14Q16.80 9.43 18.16 5.28L18.16 5.28L20.17 5.28ZM24.23 12.81L24.23 12.81L24.23 12.81Q22.57 12.81 21.67 11.82L21.67 11.82L21.67 11.82Q20.77 10.83 20.77 8.94L20.77 8.94L20.77 8.94Q20.77 7.11 21.68 6.13L21.68 6.13L21.68 6.13Q22.59 5.14 24.26 5.14L24.26 5.14L24.26 5.14Q25.85 5.14 26.69 6.20L26.69 6.20L26.69 6.20Q27.54 7.25 27.54 9.29L27.54 9.29L27.54 9.34L22.79 9.34L22.79 9.34Q22.79 10.42 23.19 10.98L23.19 10.98L23.19 10.98Q23.59 11.53 24.33 11.53L24.33 11.53L24.33 11.53Q25.35 11.53 25.61 10.64L25.61 10.64L27.43 10.80L27.43 10.80Q26.64 12.81 24.23 12.81ZM24.23 6.35L24.23 6.35L24.23 6.35Q23.56 6.35 23.19 6.82L23.19 6.82L23.19 6.82Q22.83 7.29 22.80 8.14L22.80 8.14L25.68 8.14L25.68 8.14Q25.62 7.25 25.25 6.80L25.25 6.80L25.25 6.80Q24.87 6.35 24.23 6.35ZM35.23 10.51L35.23 10.51L35.23 10.51Q35.23 11.59 34.35 12.20L34.35 12.20L34.35 12.20Q33.47 12.81 31.92 12.81L31.92 12.81L31.92 12.81Q30.39 12.81 29.58 12.33L29.58 12.33L29.58 12.33Q28.77 11.85 28.51 10.83L28.51 10.83L30.19 10.58L30.19 10.58Q30.34 11.10 30.69 11.32L30.69 11.32L30.69 11.32Q31.04 11.54 31.92 11.54L31.92 11.54L31.92 11.54Q32.72 11.54 33.09 11.33L33.09 11.33L33.09 11.33Q33.46 11.13 33.46 10.69L33.46 10.69L33.46 10.69Q33.46 10.34 33.16 10.13L33.16 10.13L33.16 10.13Q32.87 9.92 32.16 9.78L32.16 9.78L32.16 9.78Q30.53 9.45 29.96 9.18L29.96 9.18L29.96 9.18Q29.39 8.90 29.10 8.46L29.10 8.46L29.10 8.46Q28.80 8.02 28.80 7.38L28.80 7.38L28.80 7.38Q28.80 6.32 29.62 5.73L29.62 5.73L29.62 5.73Q30.43 5.13 31.93 5.13L31.93 5.13L31.93 5.13Q33.25 5.13 34.05 5.65L34.05 5.65L34.05 5.65Q34.86 6.16 35.05 7.13L35.05 7.13L33.35 7.31L33.35 7.31Q33.27 6.86 32.95 6.63L32.95 6.63L32.95 6.63Q32.63 6.41 31.93 6.41L31.93 6.41L31.93 6.41Q31.25 6.41 30.91 6.59L30.91 6.59L30.91 6.59Q30.56 6.76 30.56 7.17L30.56 7.17L30.56 7.17Q30.56 7.49 30.83 7.68L30.83 7.68L30.83 7.68Q31.09 7.87 31.71 7.99L31.71 7.99L31.71 7.99Q32.58 8.17 33.25 8.36L33.25 8.36L33.25 8.36Q33.93 8.54 34.33 8.80L34.33 8.80L34.33 8.80Q34.74 9.06 34.98 9.47L34.98 9.47L34.98 9.47Q35.23 9.88 35.23 10.51ZM39.86 12.81L39.86 12.81L39.86 12.81Q38.18 12.81 37.26 11.81L37.26 11.81L37.26 11.81Q36.35 10.81 36.35 9.02L36.35 9.02L36.35 9.02Q36.35 7.18 37.27 6.16L37.27 6.16L37.27 6.16Q38.19 5.14 39.89 5.14L39.89 5.14L39.89 5.14Q41.19 5.14 42.05 5.80L42.05 5.80L42.05 5.80Q42.90 6.45 43.12 7.61L43.12 7.61L41.19 7.70L41.19 7.70Q41.10 7.14 40.78 6.80L40.78 6.80L40.78 6.80Q40.45 6.46 39.85 6.46L39.85 6.46L39.85 6.46Q38.36 6.46 38.36 8.94L38.36 8.94L38.36 8.94Q38.36 11.50 39.87 11.50L39.87 11.50L39.87 11.50Q40.42 11.50 40.79 11.15L40.79 11.15L40.79 11.15Q41.16 10.81 41.25 10.12L41.25 10.12L43.18 10.21L43.18 10.21Q43.07 10.97 42.63 11.57L42.63 11.57L42.63 11.57Q42.19 12.16 41.47 12.49L41.47 12.49L41.47 12.49Q40.76 12.81 39.86 12.81ZM51.59 8.97L51.59 8.97L51.59 8.97Q51.59 10.77 50.59 11.79L50.59 11.79L50.59 11.79Q49.59 12.81 47.83 12.81L47.83 12.81L47.83 12.81Q46.10 12.81 45.12 11.79L45.12 11.79L45.12 11.79Q44.13 10.76 44.13 8.97L44.13 8.97L44.13 8.97Q44.13 7.18 45.12 6.16L45.12 6.16L45.12 6.16Q46.10 5.14 47.87 5.14L47.87 5.14L47.87 5.14Q49.68 5.14 50.64 6.13L50.64 6.13L50.64 6.13Q51.59 7.12 51.59 8.97ZM49.58 8.97L49.58 8.97L49.58 8.97Q49.58 7.65 49.15 7.05L49.15 7.05L49.15 7.05Q48.72 6.46 47.90 6.46L47.90 6.46L47.90 6.46Q46.15 6.46 46.15 8.97L46.15 8.97L46.15 8.97Q46.15 10.21 46.58 10.85L46.58 10.85L46.58 10.85Q47.00 11.50 47.81 11.50L47.81 11.50L47.81 11.50Q49.58 11.50 49.58 8.97ZM55.04 12.67L53.12 12.67L53.12 7.01L53.12 7.01Q53.12 6.41 53.10 6.00L53.10 6.00L53.10 6.00Q53.08 5.59 53.06 5.28L53.06 5.28L54.89 5.28L54.89 5.28Q54.91 5.40 54.95 6.03L54.95 6.03L54.95 6.03Q54.98 6.65 54.98 6.86L54.98 6.86L55.01 6.86L55.01 6.86Q55.29 6.08 55.51 5.76L55.51 5.76L55.51 5.76Q55.73 5.44 56.03 5.29L56.03 5.29L56.03 5.29Q56.33 5.13 56.78 5.13L56.78 5.13L56.78 5.13Q57.15 5.13 57.37 5.24L57.37 5.24L57.37 6.84L57.37 6.84Q56.91 6.74 56.55 6.74L56.55 6.74L56.55 6.74Q55.84 6.74 55.44 7.32L55.44 7.32L55.44 7.32Q55.04 7.90 55.04 9.04L55.04 9.04L55.04 12.67ZM61.59 12.81L61.59 12.81L61.59 12.81Q59.92 12.81 59.03 11.82L59.03 11.82L59.03 11.82Q58.13 10.83 58.13 8.94L58.13 8.94L58.13 8.94Q58.13 7.11 59.04 6.13L59.04 6.13L59.04 6.13Q59.95 5.14 61.62 5.14L61.62 5.14L61.62 5.14Q63.21 5.14 64.05 6.20L64.05 6.20L64.05 6.20Q64.89 7.25 64.89 9.29L64.89 9.29L64.89 9.34L60.15 9.34L60.15 9.34Q60.15 10.42 60.55 10.98L60.55 10.98L60.55 10.98Q60.95 11.53 61.69 11.53L61.69 11.53L61.69 11.53Q62.71 11.53 62.97 10.64L62.97 10.64L64.78 10.80L64.78 10.80Q64.00 12.81 61.59 12.81ZM61.59 6.35L61.59 6.35L61.59 6.35Q60.92 6.35 60.55 6.82L60.55 6.82L60.55 6.82Q60.18 7.29 60.16 8.14L60.16 8.14L63.03 8.14L63.03 8.14Q62.98 7.25 62.60 6.80L62.60 6.80L62.60 6.80Q62.23 6.35 61.59 6.35ZM79.00 12.67L77.01 12.67L76.15 10.21L72.48 10.21L71.63 12.67L69.61 12.67L73.12 3.04L75.50 3.04L79.00 12.67ZM74.46 5.00L74.31 4.53L74.27 4.68L74.27 4.68Q74.20 4.92 74.11 5.24L74.11 5.24L74.11 5.24Q74.01 5.55 72.93 8.70L72.93 8.70L75.70 8.70L74.75 5.93L74.46 5.00ZM87.35 8.94L87.35 8.94L87.35 8.94Q87.35 10.79 86.61 11.80L86.61 11.80L86.61 11.80Q85.87 12.81 84.51 12.81L84.51 12.81L84.51 12.81Q83.73 12.81 83.16 12.47L83.16 12.47L83.16 12.47Q82.58 12.13 82.27 11.50L82.27 11.50L82.23 11.50L82.23 11.50Q82.27 11.70 82.27 12.74L82.27 12.74L82.27 15.58L80.35 15.58L80.35 6.98L80.35 6.98Q80.35 5.93 80.29 5.28L80.29 5.28L82.16 5.28L82.16 5.28Q82.20 5.40 82.22 5.76L82.22 5.76L82.22 5.76Q82.24 6.13 82.24 6.48L82.24 6.48L82.27 6.48L82.27 6.48Q82.92 5.12 84.64 5.12L84.64 5.12L84.64 5.12Q85.93 5.12 86.64 6.11L86.64 6.11L86.64 6.11Q87.35 7.11 87.35 8.94ZM85.35 8.94L85.35 8.94L85.35 8.94Q85.35 6.45 83.82 6.45L83.82 6.45L83.82 6.45Q83.06 6.45 82.65 7.12L82.65 7.12L82.65 7.12Q82.24 7.79 82.24 9.00L82.24 9.00L82.24 9.00Q82.24 10.19 82.65 10.85L82.65 10.85L82.65 10.85Q83.06 11.50 83.81 11.50L83.81 11.50L83.81 11.50Q85.35 11.50 85.35 8.94ZM95.90 8.94L95.90 8.94L95.90 8.94Q95.90 10.79 95.16 11.80L95.16 11.80L95.16 11.80Q94.42 12.81 93.06 12.81L93.06 12.81L93.06 12.81Q92.29 12.81 91.71 12.47L91.71 12.47L91.71 12.47Q91.13 12.13 90.82 11.50L90.82 11.50L90.78 11.50L90.78 11.50Q90.82 11.70 90.82 12.74L90.82 12.74L90.82 15.58L88.90 15.58L88.90 6.98L88.90 6.98Q88.90 5.93 88.85 5.28L88.85 5.28L90.71 5.28L90.71 5.28Q90.75 5.40 90.77 5.76L90.77 5.76L90.77 5.76Q90.79 6.13 90.79 6.48L90.79 6.48L90.82 6.48L90.82 6.48Q91.47 5.12 93.19 5.12L93.19 5.12L93.19 5.12Q94.48 5.12 95.19 6.11L95.19 6.11L95.19 6.11Q95.90 7.11 95.90 8.94ZM93.90 8.94L93.90 8.94L93.90 8.94Q93.90 6.45 92.37 6.45L92.37 6.45L92.37 6.45Q91.61 6.45 91.20 7.12L91.20 7.12L91.20 7.12Q90.79 7.79 90.79 9.00L90.79 9.00L90.79 9.00Q90.79 10.19 91.20 10.85L91.20 10.85L91.20 10.85Q91.61 11.50 92.36 11.50L92.36 11.50L92.36 11.50Q93.90 11.50 93.90 8.94Z"></path></g><!----><!----></svg>